PathFileType	4	(X/Y/Z)	pose_F01_0-91.trc
DataRate	CameraRate	NumFrames	NumMarkers	Units	OrigDataRate	OrigDataStartFrame	OrigNumFrames
30	30	7	21	m	30	68	91
Frame#	Time	CHip			RHip			RKnee			RAnkle			RBigToe			RSmallToe			RHeel			LHip			LKnee			LAnkle			LBigToe			LSmallToe			LHeel			Neck			Nose			RShoulder			RElbow			RWrist			LShoulder			LElbow			LWrist			
		X1	Y1	Z1	X2	Y2	Z2	X3	Y3	Z3	X4	Y4	Z4	X5	Y5	Z5	X6	Y6	Z6	X7	Y7	Z7	X8	Y8	Z8	X9	Y9	Z9	X10	Y10	Z10	X11	Y11	Z11	X12	Y12	Z12	X13	Y13	Z13	X14	Y14	Z14	X15	Y15	Z15	X16	Y16	Z16	X17	Y17	Z17	X18	Y18	Z18	X19	Y19	Z19	X20	Y20	Z20	X21	Y21	Z21	
68	2.2666666666666666	-0.32906808575328556	1.825016673392392	-0.623208878402534	-0.3419262095354867	1.8237127318915403	-0.5672370547884177	-0.3392565281484402	1.6997670543518228	-0.5334663559077344	-0.3627527240258497	1.5725110034732943	-0.45295210263882435	-0.32371961046861075	1.5428033592634567	-0.44493557002205225	-0.33919471110155197	1.550096887206465	-0.4278662348280262	-0.5635840151427716	1.5432869975978383	-0.9458797543302819	-0.3128343862750137	1.8261699338967425	-0.6891488597132628	-0.3348931883762053	1.6947398592761589	-0.6625807147577456	-0.3414443312303327	1.5775473593293865	-0.5831729906877106	-0.45020322616867614	1.5288441512648838	-0.9856717432875501	-0.3028174340706399	1.5512598011683938	-0.5899403905133028	-0.35835001243436987	1.5690580424938385	-0.5788749617948774	-0.3255680716474476	1.975407045941274	-0.66154993347543	-0.29992330824415786	2.0411575751336035	-0.6330502279260791	-0.347284151255422	1.9758514510337737	-0.5820406215941686	-0.3626698684079407	1.889374496775235	-0.5406357699002888	-0.361941869616024	1.8170162188489642	-0.4986918428003451	-0.3038336228089328	1.97668517055012	-0.7392148091147018	-0.9308980468333817	1.818574466078601	-0.15789399801427237	-0.8130653720407491	1.7463308600837535	-0.29634308884207156
69	2.3	-0.33034114623682465	1.8229888212859013	-0.6175945362690397	-0.34112387442785086	1.821837302917991	-0.5637788481982506	-0.33796265245724777	1.6982345197238764	-0.5303033848711856	-0.3627527240258497	1.5725110034732943	-0.45295210263882435	-0.32357080432319163	1.542924387455892	-0.44509079431757187	-0.33955338170113164	1.5509220997857298	-0.42893025656959294	-0.5635840151427716	1.5432869975978383	-0.9458797543302819	-0.3132947413233128	1.8252147477357474	-0.6806507371524732	-0.334836079006011	1.6946453162083523	-0.6625075666832632	-0.3414443312303327	1.5775473593293865	-0.5831729906877106	-0.45020322616867614	1.5288441512648838	-0.9856717432875501	-0.3028174340706399	1.5512598011683938	-0.5899403905133028	-0.35835001243436987	1.5690580424938385	-0.5788749617948774	-0.32768056783890276	1.9754476311571358	-0.6593474613914753	-0.3019995395113066	2.042331619360723	-0.63133982294557	-0.3473216554949783	1.976059045553047	-0.5819505038058966	-0.3632767519975859	1.9013792239695009	-0.543440784431185	-0.3607052358253102	1.8187159511225341	-0.4911629790853504	-0.30290353622732097	1.9767207869446815	-0.7361950612786166	-0.9411398725093825	1.818317893207838	-0.14325718060617215	-0.8253670277102485	1.7488068974236513	-0.2803561471349819
70	2.3333333333333335	-0.33151420123333747	1.8273484889994687	-0.6127061689659689	-0.3431849267025047	1.825321364059887	-0.5619895626615997	-0.33717852119740715	1.6999142020424334	-0.5267964202953157	-0.3627527240258497	1.5725110034732943	-0.45295210263882435	-0.3234219981777725	1.5430454156483273	-0.4452460186130915	-0.33684489715367005	1.5483786911942772	-0.42677530009353554	-0.5635840151427716	1.5432869975978383	-0.9458797543302819	-0.31575527678147725	1.8278135871381047	-0.6705384277210756	-0.3361610966389617	1.6955874437332341	-0.6571666176876747	-0.3414443312303327	1.5775473593293865	-0.5831729906877106	-0.45020322616867614	1.5288441512648838	-0.9856717432875501	-0.3028174340706399	1.5512598011683938	-0.5899403905133028	-0.35835001243436987	1.5690580424938385	-0.5788749617948774	-0.3289018141361925	1.9771129448773799	-0.6544729509341368	-0.30513848395001847	2.043120872941603	-0.6238391160009555	-0.35038123779377683	1.9761587729940855	-0.5747376063528684	-0.3637341807887901	1.90075267670665	-0.5327477858584746	-0.3594686020345964	1.820415683396104	-0.4836341153703556	-0.30419771731344075	1.9765084722499444	-0.7309372145531154	-0.9598831159152394	1.8196630937168592	-0.11525496874404173	-0.2922826237829078	1.8184167366493384	-0.7694151174734194
71	2.3666666666666667	-0.33046816492591735	1.8257103592418993	-0.6093148754739994	-0.34315371469407885	1.8242232906719267	-0.5536011429433002	-0.33822785959136586	1.6974031431716976	-0.5208776417152465	-0.3520103464086013	1.5674131481571274	-0.4770585073326428	-0.31782653345766904	1.5395534932059893	-0.4411170418148767	-0.3314641333936138	1.5438334728967111	-0.4218208813013102	-0.5377738795206715	1.5362856045872515	-0.96464630788424	-0.31899477521052566	1.825541249543269	-0.6628900683990097	-0.33588333894503236	1.6965972513376917	-0.6574249824881879	-0.3414443312303327	1.5775473593293865	-0.5831729906877106	-0.45020322616867614	1.5288441512648838	-0.9856717432875501	-0.3028174340706399	1.5512598011683938	-0.5899403905133028	-0.35835001243436987	1.5690580424938385	-0.5788749617948774	-0.3318323926448444	1.978817401249859	-0.647066950443079	-0.30838961077688204	2.0441431631938105	-0.6170002348128659	-0.3523925472078982	1.977914253984351	-0.5727525096532744	-0.36419160957999425	1.900126129443799	-0.522054787285764	-0.35823196824388265	1.822115415669674	-0.4761052516553609	-0.3066886597868979	1.9752310586481858	-0.7202079886101385	-0.9772702144938734	1.8175677619135384	-0.08981184222092714	-0.29491473063979384	1.8174537859207998	-0.7587203074953597
72	2.4	-0.331654762351328	1.8285166866894866	-0.6042087729217789	-0.3442724013362217	1.8257229525562357	-0.5482471513413023	-0.3384379625915274	1.7003242940739318	-0.5121952500506218	-0.3455219124493502	1.5659643071950637	-0.46487186815876347	-0.30772288551481747	1.5405080202364845	-0.4330920043485183	-0.31831711447371536	1.545905935254913	-0.41259803776359627	-0.352194765398174	1.5495126419546827	-0.46527926627318167	-0.32026988207359786	1.8271200023001857	-0.6575177788748808	-0.33515339699017427	1.6985860176673884	-0.654105591466392	-0.3414443312303327	1.5775473593293865	-0.5831729906877106	-0.45020322616867614	1.5288441512648838	-0.9856717432875501	-0.3028174340706399	1.5512598011683938	-0.5899403905133028	-0.35835001243436987	1.5690580424938385	-0.5788749617948774	-0.32814260027668424	1.9771158735459646	-0.6346471984367846	-0.30853578115432884	2.0447007113419815	-0.6005361048334298	-0.3512085748370988	1.9762998306033446	-0.5609288783590113	-0.36464903837119844	1.899499582180948	-0.5113617887130535	-0.3569953344531689	1.823815147943244	-0.46857638794036616	-0.3060343447404916	1.976462038212544	-0.7092759218552835	-0.9978089993934707	1.8164784091777937	-0.05983805242998809	-0.29551453664315747	1.81876688063455	-0.7502073942946871
73	2.433333333333333	-0.33074341854002154	1.8251961369893746	-0.5920082691489498	-0.34745163444794486	1.824629098195357	-0.5317780021217072	-0.3431698330483234	1.696654043910366	-0.4935028247040079	-0.33995896175953283	1.5601417349195847	-0.44250193734726817	-0.29763149609702405	1.5383334444008425	-0.41125341636193175	-0.3092073197789407	1.542717012480223	-0.3943572891862821	-0.5436722386986853	1.5273081958918084	-0.9803936212688201	-0.31951401225410303	1.8275487607234175	-0.6458030028263142	-0.33317620040599755	1.6957558477258194	-0.6474689354269104	-0.3414443312303327	1.5775473593293865	-0.5831729906877106	-0.45020322616867614	1.5288441512648838	-0.9856717432875501	-0.3028174340706399	1.5512598011683938	-0.5899403905133028	-0.35835001243436987	1.5690580424938385	-0.5788749617948774	-0.32827388196873103	1.9767387713762277	-0.62628087144988	-0.3085568341863574	2.044445417208068	-0.5920749602581027	-0.3482416766025361	1.9771593340583327	-0.5518940135461494	-0.36510646716240264	1.8988730349180971	-0.500668790140343	-0.3557587006624551	1.825514880216814	-0.4610475242253714	-0.30536486156036285	1.9764442518905094	-0.6977935848946065	-1.0385461747576115	1.8192872305529313	0.003762318127234844	-0.29188933673030903	1.8160209384563406	-0.7373839001281979
74	2.466666666666667	-0.3320150945329639	1.826063715595614	-0.5782772340742593	-0.3464413249478792	1.8269006635396372	-0.5202250393610243	-0.34304038008325366	1.6971815684494616	-0.48462679780799384	-0.33800867185241507	1.5586213507966626	-0.4306824958223322	-0.2961648931479335	1.536324380100148	-0.4080603169039104	-0.30664109088906866	1.5386084407061293	-0.3871616984029935	-0.3400772304614374	1.5441891170736877	-0.43204105775774754	-0.31976064830066664	1.829722242914391	-0.6373023883152734	-0.33193339401383604	1.6963306637605446	-0.635968190222695	-0.3414443312303327	1.5775473593293865	-0.5831729906877106	-0.45020322616867614	1.5288441512648838	-0.9856717432875501	-0.3028174340706399	1.5512598011683938	-0.5899403905133028	-0.35835001243436987	1.5690580424938385	-0.5788749617948774	-0.3283313724139328	1.9774108720151067	-0.6095760829243254	-0.30540375752586263	2.046588061946289	-0.5825935605547362	-0.35115014332089156	1.9762845595018932	-0.5361881888277101	-0.3655638959536068	1.8982464876552463	-0.48997579156763255	-0.3545220668717413	1.8272146124903839	-0.45351866051037665	-0.3037881606079409	1.9768236533170165	-0.6833305156962729	-1.0596211062798655	1.8160302145736342	0.03403738438801501	-0.29005073459201886	1.817666080060603	-0.7169445555239453
